# xmcd
#
# Track frame offsets: 
#        150
#        13980
#        33827
#        46080
#        56420
#        72845
#        87862
#        100312
#        119167
#        130870
#        146792
#        159637
#
# Disc length: 2334 seconds
#
# Revision: 0
# Processed by: cddbd v1.4PL0 Copyright (c) Steve Scherf et al.
# Submitted via: ExactAudioCopy v0.90b4
#
DISCID=a6091c0c
DTITLE=George Fox - A George Fox Christmas
DYEAR=1900
DGENRE=Country
TTITLE0=When December Arrives (Don't It Remind You Of Christmas)
TTITLE1=Silent Night
TTITLE2=Medley: Most Wonderful Time Of The Year-Sleigh Ride-Holly Joll
TTITLE2=y Christmas
TTITLE3=Mistletoe
TTITLE4=Three Little Pennies
TTITLE5=Six White Boomers
TTITLE6=Bright Light
TTITLE7=Medley: Joy To The World-Good King Wenceslas-It Came Upon A Mi
TTITLE7=dnight Clear
TTITLE8=Santa Lost His Ho Ho Ho
TTITLE9=Away In A Manger-O Come All Ye Faithful
TTITLE10=Christmas Must Be Tonight
TTITLE11=Christmas Angel
EXTD=
EXTT0=
EXTT1=
EXTT2=
EXTT3=
EXTT4=
EXTT5=
EXTT6=
EXTT7=
EXTT8=
EXTT9=
EXTT10=
EXTT11=
PLAYORDER=
